<svg t="1720816804553" class="icon" viewBox="0 0 1024 1024" version="1.1" xmlns="http://www.w3.org/2000/svg" p-id="2192" width="200" height="200"><path d="M849.170732 0c97.404878 0 174.829268 77.42439 174.829268 174.829268v674.341464c0 97.404878-77.42439 174.829268-174.829268 174.829268H174.829268c-97.404878 0-174.829268-77.42439-174.829268-174.829268V174.829268c0-97.404878 77.42439-174.829268 174.829268-174.829268h674.341464z m-207.297561 249.756098H382.126829c-29.970732 0-57.443902 19.980488-64.936585 47.453658v4.995122l-64.936585 217.287805c0 2.497561-2.497561 7.492683-2.497561 9.990244 0 24.97561 17.482927 44.956098 42.458536 44.956097h174.829268v132.370732H399.609756c-24.97561 0-44.956098 19.980488-44.956097 44.956098s17.482927 44.956098 42.458536 44.956097H631.882927c24.97561 0 44.956098-19.980488 44.956097-44.956097s-17.482927-44.956098-42.458536-44.956098h-74.926829V574.439024H649.365854v67.434147c0 12.487805 9.990244 19.980488 19.980487 22.478049h2.497561c12.487805 0 19.980488-9.990244 22.478049-19.980488v-67.434147H736.780488c22.478049-4.995122 37.463415-27.473171 34.965853-52.44878v-2.497561l-64.936585-217.287805c-7.492683-32.468293-34.965854-54.946341-64.936585-54.946341z" fill="#38B781" p-id="2193"></path></svg>
