<svg t="1720816869476" class="icon" viewBox="0 0 1024 1024" version="1.1" xmlns="http://www.w3.org/2000/svg" p-id="2342" width="200" height="200"><path d="M849.170732 0c97.404878 0 174.829268 77.42439 174.829268 174.829268v674.341464c0 97.404878-77.42439 174.829268-174.829268 174.829268H174.829268c-97.404878 0-174.829268-77.42439-174.829268-174.829268V174.829268c0-97.404878 77.42439-174.829268 174.829268-174.829268h674.341464z m-174.829269 282.22439H327.180488c-24.97561 2.497561-44.956098 22.478049-47.453659 47.453659V714.302439c2.497561 24.97561 22.478049 44.956098 47.453659 47.453659H679.336585c24.97561-2.497561 44.956098-22.478049 47.453659-47.453659v-192.312195l-79.921951 112.390244-94.907317 27.473171-2.497561-94.907318 174.829268-247.258536-2.497561-4.995122c-7.492683-17.482927-24.97561-32.468293-44.956098-32.468293H674.341463z m-204.8 332.17561c12.487805 0 24.97561 9.990244 24.97561 24.97561 0 12.487805-9.990244 22.478049-22.478049 24.97561h-114.887804c-12.487805-2.497561-22.478049-12.487805-22.478049-24.97561s9.990244-22.478049 22.478049-24.97561h112.390243z m244.760976-247.258537l-144.858537 209.795122v62.439025l59.941464-17.482927 144.858536-209.795122-59.941463-44.956098z m-202.302439 127.37561c12.487805 0 24.97561 9.990244 24.97561 24.97561 0 12.487805-9.990244 22.478049-22.478049 24.97561H357.15122c-12.487805-2.497561-22.478049-12.487805-22.478049-24.97561s9.990244-22.478049 22.478049-24.97561H512z m54.946341-122.380488c12.487805 0 24.97561 9.990244 24.97561 24.97561 0 12.487805-9.990244 22.478049-22.478049 24.97561h-212.292682c-12.487805-2.497561-22.478049-12.487805-22.478049-24.97561s9.990244-22.478049 22.478049-24.97561h209.795121z m189.814635-64.936585l-24.97561 34.965854 59.941463 44.956097 24.97561-34.965853-59.941463-44.956098z" fill="#0E7EB7" p-id="2343"></path></svg>
