<svg t="1720819874425" class="icon" viewBox="0 0 1024 1024" version="1.1" xmlns="http://www.w3.org/2000/svg" p-id="5200" width="200" height="200"><path d="M849.170732 0c97.404878 0 174.829268 77.42439 174.829268 174.829268v674.341464c0 97.404878-77.42439 174.829268-174.829268 174.829268H174.829268c-97.404878 0-174.829268-77.42439-174.829268-174.829268V174.829268c0-97.404878 77.42439-174.829268 174.829268-174.829268h674.341464zM581.931707 397.112195h-144.858536c-162.341463 0-202.302439 322.185366-202.302439 322.185366 0 42.458537 32.468293 82.419512 74.926829 82.419512h402.107317c42.458537 0 74.926829-42.458537 74.926829-82.419512-2.497561 0-42.458537-322.185366-204.8-322.185366z m19.980488 72.429268c7.492683 2.497561 9.990244 14.985366 7.492683 24.97561l-54.946341 89.912195h47.453658c9.990244 0 17.482927 7.492683 17.482927 17.482927s-7.492683 17.482927-17.482927 17.482927h-72.429268v22.478049h72.429268c9.990244 0 17.482927 7.492683 17.482927 17.482927s-7.492683 17.482927-17.482927 17.482926h-72.429268V724.292683c0 9.990244-7.492683 17.482927-17.482927 17.482927s-17.482927-7.492683-17.482927-17.482927v-47.453659h-72.429268c-9.990244 0-17.482927-7.492683-17.482927-17.482926s7.492683-17.482927 17.482927-17.482927h72.429268v-22.478049h-72.429268c-9.990244 0-17.482927-7.492683-17.482927-17.482927s7.492683-17.482927 17.482927-17.482927h49.951219l-49.951219-89.912195c-7.492683-7.492683-2.497561-17.482927 7.492683-22.478049 7.492683-7.492683 17.482927-2.497561 22.478049 2.497561l62.439024 107.395122h2.497561l62.439024-107.395122c0-4.995122 9.990244-9.990244 22.478049-4.995122z m-239.765854-197.307317l2.497561 7.492683c7.492683 22.478049 37.463415 87.414634 72.429269 87.414634h139.863414c42.458537 0 74.926829-94.907317 74.92683-94.907317v-4.995122c0-24.97561-7.492683-44.956098-49.95122-44.956097-49.95122 0-62.439024 32.468293-97.404878 32.468293-32.468293 0-49.95122-24.97561-94.907317-32.468293-39.960976-2.497561-47.453659 24.97561-47.453659 49.951219z" fill="#FC9637" p-id="5201"></path></svg>
