<svg t="1720816912171" class="icon" viewBox="0 0 1024 1024" version="1.1" xmlns="http://www.w3.org/2000/svg" p-id="2498" width="200" height="200"><path d="M849.170732 0c97.404878 0 174.829268 77.42439 174.829268 174.829268v674.341464c0 97.404878-77.42439 174.829268-174.829268 174.829268H174.829268c-97.404878 0-174.829268-77.42439-174.829268-174.829268V174.829268c0-97.404878 77.42439-174.829268 174.829268-174.829268h674.341464zM349.658537 262.243902h-64.936586c-22.478049 0-34.965854 4.995122-42.458536 12.487805-7.492683 7.492683-12.487805 19.980488-12.487805 37.463415v124.878049c0 7.492683 4.995122 12.487805 7.492683 14.985366 4.995122 4.995122 7.492683 7.492683 14.985366 7.492683s19.980488 4.995122 27.47317 14.985365c7.492683 7.492683 12.487805 19.980488 12.487805 34.965854v27.473171c-4.995122 12.487805-14.985366 22.478049-27.473171 27.47317-4.995122 4.995122-7.492683 4.995122-12.487804 4.995122-7.492683 0-12.487805 4.995122-14.985366 7.492683-4.995122 4.995122-4.995122 7.492683-4.995122 14.985366v129.873171c0 14.985366 0 22.478049 7.492683 29.970732 7.492683 4.995122 19.980488 7.492683 37.463414 7.492683H349.658537V262.243902z m392.117073-4.995122H379.629268V749.268293h362.146342c4.995122 0 7.492683-4.995122 12.487805-7.492683 4.995122-4.995122 7.492683-7.492683 7.492683-12.487805s0-7.492683-4.995122-14.985366l-12.487805-12.487805c-7.492683-4.995122-14.985366-7.492683-19.980488-14.985366v-17.482927c0-4.995122 4.995122-12.487805 7.492683-14.985365 4.995122-7.492683 12.487805-7.492683 19.980488-12.487805l12.487805-12.487805c4.995122-4.995122 4.995122-7.492683 4.995121-14.985366s-4.995122-14.985366-7.492682-19.980488c-4.995122-4.995122-7.492683-7.492683-14.985366-12.487805-12.487805-7.492683-19.980488-14.985366-19.980488-27.47317s7.492683-22.478049 27.473171-29.970732c4.995122 0 7.492683-7.492683 12.487805-12.487805s4.995122-7.492683 4.995121-14.985366c-4.995122-4.995122-4.995122-12.487805-7.492682-14.985366-4.995122-4.995122-7.492683-7.492683-14.985366-12.487805-12.487805 0-14.985366-4.995122-19.980488-12.487804s-4.995122-12.487805-4.995122-19.980488c0-7.492683 4.995122-12.487805 7.492683-19.980488 4.995122-4.995122 12.487805-7.492683 19.980488-12.487805 7.492683-4.995122 12.487805-7.492683 14.985366-12.487805 4.995122-4.995122 0-7.492683 0-14.985366s0-14.985366-4.995122-19.980487c-4.995122-4.995122-7.492683-7.492683-14.985366-12.487805-12.487805-4.995122-14.985366-7.492683-19.980488-12.487805-4.995122-4.995122-4.995122-7.492683-4.995122-14.985366 0-4.995122 4.995122-12.487805 7.492683-14.985366 4.995122-7.492683 7.492683-12.487805 14.985366-12.487805l12.487805-12.487805c4.995122-4.995122 4.995122-12.487805 4.995122-14.985366v-2.497561c0-4.995122 0-9.990244-4.995122-12.487804-2.497561 14.985366-9.990244 9.990244-14.985366 9.990243z m-107.395122 114.887805c7.492683-7.492683 22.478049-7.492683 29.970732 0 4.995122 4.995122 7.492683 7.492683 7.492682 14.985366s-4.995122 12.487805-12.487804 14.985366l-72.429269 67.434146h52.448781c12.487805 0 22.478049 12.487805 22.478049 22.478049 0 14.985366-12.487805 22.478049-22.478049 22.478049H574.439024v42.458537h64.936586c12.487805 0 22.478049 12.487805 22.478049 22.478048 0 14.985366-12.487805 22.478049-22.478049 22.478049H574.439024v59.941464c0 12.487805-12.487805 22.478049-22.478048 22.478048s-22.478049-12.487805-22.478049-22.478048v-59.941464h-67.434147c-12.487805 0-22.478049-12.487805-22.478048-22.478049s12.487805-22.478049 22.478048-22.478048h67.434147v-42.458537h-67.434147c-12.487805 0-22.478049-12.487805-22.478048-22.478049s12.487805-22.478049 22.478048-22.478049h57.443903L449.560976 402.107317c-4.995122-4.995122-7.492683-7.492683-7.492683-14.985366 0-4.995122 4.995122-7.492683 12.487805-12.487805 7.492683-7.492683 22.478049-7.492683 29.970731 0l72.429269 64.936586 4.995122 4.995122 4.995121-4.995122 67.434147-67.434147z" fill="#F7B51B" p-id="2499"></path></svg>
