<svg t="1720819907724" class="icon" viewBox="0 0 1024 1024" version="1.1" xmlns="http://www.w3.org/2000/svg" p-id="5565" width="200" height="200"><path d="M849.170732 0c97.404878 0 174.829268 77.42439 174.829268 174.829268v674.341464c0 97.404878-77.42439 174.829268-174.829268 174.829268H174.829268c-97.404878 0-174.829268-77.42439-174.829268-174.829268V174.829268c0-97.404878 77.42439-174.829268 174.829268-174.829268h674.341464zM482.029268 322.185366c-42.458537 0-77.42439 32.468293-79.921951 74.926829V599.414634l-7.492683-7.492683-2.497561-2.497561c-32.468293-27.473171-82.419512-22.478049-109.892683 7.492683l-4.995122 2.497561-2.497561 2.497561c-24.97561 32.468293-22.478049 82.419512 7.492683 109.892683l2.497561 2.497561 102.4 87.414634h359.648781v-199.804878c0-27.473171-19.980488-49.95122-47.453659-52.44878H559.453659v-149.853659c2.497561-42.458537-32.468293-77.42439-77.424391-77.42439z m0 52.44878c14.985366 0 24.97561 9.990244 27.473171 24.97561v204.8h184.819512v199.804878h-234.770731l-62.439025-59.941463-77.42439-64.936586c-12.487805-9.990244-14.985366-27.473171-7.492683-39.960975l2.497561-2.497561 2.497561-2.497561c9.990244-12.487805 27.473171-14.985366 39.960976-7.492683l2.49756 2.497561 2.497561 2.497561 94.907318 82.419512V402.107317c-2.497561-14.985366 9.990244-27.473171 24.975609-27.473171z m-2.497561-154.84878c-94.907317 0-172.331707 77.42439-172.331707 172.331707 0 44.956098 17.482927 84.917073 47.453659 117.385366l4.995121 4.995122v-117.385366c-2.497561-42.458537 19.980488-84.917073 57.443903-107.395122 37.463415-22.478049 82.419512-24.97561 122.380488-2.497561 37.463415 19.980488 59.941463 57.443902 62.439024 99.902439V514.497561c32.468293-32.468293 52.44878-77.42439 49.95122-122.380488 0-94.907317-77.42439-172.331707-172.331708-172.331707z" fill="#007aff" p-id="5566" data-spm-anchor-id="a313x.collections_detail.0.i8.959d3a81N0ejCl" class="selected"></path></svg>
