<svg t="1720819789754" class="icon" viewBox="0 0 1024 1024" version="1.1" xmlns="http://www.w3.org/2000/svg" p-id="3622" width="200" height="200"><path d="M849.170732 0c97.404878 0 174.829268 77.42439 174.829268 174.829268v674.341464c0 97.404878-77.42439 174.829268-174.829268 174.829268H174.829268c-97.404878 0-174.829268-77.42439-174.829268-174.829268V174.829268c0-97.404878 77.42439-174.829268 174.829268-174.829268h674.341464zM499.512195 254.75122C349.658537 254.75122 229.77561 374.634146 229.77561 524.487805S349.658537 794.22439 499.512195 794.22439 769.24878 674.341463 769.24878 524.487805 649.365854 254.75122 499.512195 254.75122z m-19.980488 122.380487c9.990244 0 17.482927 7.492683 17.482927 17.482927v139.863415h149.853659c9.990244 0 17.482927 7.492683 17.482927 17.482927v9.990244c0 9.990244-7.492683 17.482927-17.482927 17.482926h-177.32683c-7.492683 0-14.985366-4.995122-17.482926-12.487805v-172.331707c0-9.990244 7.492683-17.482927 17.482926-17.482927h9.990244z" fill="#007aff" p-id="3623"></path></svg>
