<svg t="1720819893677" class="icon" viewBox="0 0 1024 1024" version="1.1" xmlns="http://www.w3.org/2000/svg" p-id="5356" width="200" height="200"><path d="M849.170732 0c97.404878 0 174.829268 77.42439 174.829268 174.829268v674.341464c0 97.404878-77.42439 174.829268-174.829268 174.829268H174.829268c-97.404878 0-174.829268-77.42439-174.829268-174.829268V174.829268c0-97.404878 77.42439-174.829268 174.829268-174.829268h674.341464zM591.921951 309.697561c0-29.970732-34.965854-44.956098-57.443902-24.97561l-2.497561 2.497561-97.404878 102.4-167.336586-2.497561h-2.497561c-22.478049 2.497561-39.960976 19.980488-42.458536 42.458537v142.360975c0 24.97561 17.482927 42.458537 42.458536 44.956098h24.97561v67.434146c0 24.97561 17.482927 42.458537 42.458537 44.956098H379.629268c24.97561 0 42.458537-17.482927 44.956098-42.458537V616.897561h7.492683l99.902439 104.897561c19.980488 22.478049 57.443902 7.492683 59.941463-19.980488V309.697561z m89.912195 7.492683l-19.980487 39.960976c57.443902 29.970732 94.907317 89.912195 94.907317 154.84878 0 62.439024-32.468293 117.385366-84.917074 149.853659l-4.995122 2.497561 19.980488 39.960975c59.941463-32.468293 104.897561-94.907317 112.390244-164.839024V492.019512c-7.492683-74.926829-49.95122-137.365854-112.390244-172.331707l-4.995122-2.497561z m-37.463414 74.926829l-19.980488 39.960976c27.473171 17.482927 42.458537 44.956098 42.458536 77.42439 0 29.970732-12.487805 54.946341-37.463414 72.429268l-4.995122 2.497561 19.980488 39.960976c39.960976-24.97561 64.936585-69.931707 64.936585-117.385366 0-47.453659-22.478049-89.912195-62.439024-114.887805h-2.497561z" fill="#FC9637" p-id="5357"></path></svg>
