<svg t="1720816986099" class="icon" viewBox="0 0 1024 1024" version="1.1" xmlns="http://www.w3.org/2000/svg" p-id="2654" width="200" height="200"><path d="M849.170732 0c97.404878 0 174.829268 77.42439 174.829268 174.829268v674.341464c0 97.404878-77.42439 174.829268-174.829268 174.829268H174.829268c-97.404878 0-174.829268-77.42439-174.829268-174.829268V174.829268c0-97.404878 77.42439-174.829268 174.829268-174.829268h674.341464z m-214.790244 664.35122c-7.492683 0-12.487805 0-19.980488 2.49756-4.995122 2.497561-12.487805 4.995122-14.985366 9.990244-4.995122 4.995122-7.492683 9.990244-9.990244 14.985366-2.497561 4.995122-4.995122 12.487805-4.995122 19.980488s2.497561 12.487805 4.995122 19.980488c2.497561 4.995122 4.995122 12.487805 9.990244 14.985366 4.995122 4.995122 9.990244 7.492683 14.985366 9.990244 4.995122 2.497561 12.487805 4.995122 19.980488 4.995122 7.492683 0 12.487805-2.497561 19.980488-4.995122s12.487805-4.995122 14.985365-9.990244c4.995122-4.995122 7.492683-9.990244 9.990244-14.985366 2.497561-4.995122 4.995122-12.487805 4.995122-19.980488s-2.497561-12.487805-4.995122-19.980488c-2.497561-4.995122-4.995122-12.487805-9.990244-14.985366s-9.990244-7.492683-14.985365-9.990244c-4.995122-2.497561-12.487805-2.497561-19.980488-2.49756z m-222.282927-2.497561c-7.492683 0-12.487805 0-19.980488 2.497561s-9.990244 4.995122-14.985366 9.990243c-4.995122 4.995122-7.492683 9.990244-9.990244 14.985366-2.497561 4.995122-2.497561 12.487805-2.497561 19.980488 0 7.492683 0 12.487805 2.497561 19.980488 2.497561 4.995122 4.995122 12.487805 9.990244 14.985366 4.995122 4.995122 9.990244 7.492683 14.985366 9.990244 4.995122 2.497561 12.487805 4.995122 19.980488 4.995122 7.492683 0 12.487805-2.497561 19.980488-4.995122 4.995122-2.497561 12.487805-7.492683 14.985366-9.990244 4.995122-4.995122 7.492683-9.990244 9.990244-14.985366 2.497561-4.995122 2.497561-12.487805 2.497561-19.980488 0-7.492683 0-12.487805-2.497561-19.980488-2.497561-4.995122-4.995122-12.487805-9.990244-14.985366-4.995122-4.995122-9.990244-7.492683-14.985366-9.990243-7.492683 0-12.487805-2.497561-19.980488-2.497561z m-94.907317-382.12683h-54.946342c-7.492683 0-14.985366 2.497561-19.980487 7.492683-4.995122 4.995122-7.492683 9.990244-7.492683 17.482927 0 2.497561 0 7.492683 2.497561 12.487805 0 4.995122 2.497561 7.492683 4.995122 12.487805s4.995122 7.492683 9.990244 9.990244c2.497561 2.497561 7.492683 4.995122 12.487804 4.995122h39.960976c7.492683 44.956098 14.985366 84.917073 22.478049 119.882926l7.492683 44.956098c2.497561 14.985366 4.995122 29.970732 7.492683 42.458537 2.497561 12.487805 4.995122 22.478049 4.995122 29.970731 2.497561 7.492683 2.497561 12.487805 2.497561 14.985366 0 4.995122 2.497561 9.990244 4.995122 17.482927 2.497561 4.995122 4.995122 12.487805 7.492682 17.482927 2.497561 4.995122 7.492683 9.990244 12.487805 12.487805 4.995122 2.497561 9.990244 4.995122 17.482927 4.995122H674.341463c9.990244 0 17.482927-2.497561 19.980488-7.492683 2.497561-4.995122 4.995122-12.487805 4.995122-17.482927 0-14.985366-7.492683-22.478049-24.97561-22.478049H404.604878l-7.492683-47.453658h282.22439c9.990244 0 19.980488-2.497561 24.97561-7.492683 7.492683-4.995122 12.487805-14.985366 17.482927-29.970732 2.497561-7.492683 4.995122-14.985366 9.990244-27.473171 4.995122-12.487805 7.492683-22.478049 12.487805-34.965853 4.995122-12.487805 7.492683-22.478049 12.487805-32.468293s4.995122-17.482927 7.492683-19.980488c0-2.497561 2.497561-7.492683 2.497561-12.487805s0-7.492683-2.497561-12.487805-7.492683-7.492683-12.487805-9.990244c-4.995122-2.497561-12.487805-4.995122-22.478049-4.995122H362.146341c0-7.492683-2.497561-14.985366-2.497561-19.980487 0-4.995122-2.497561-9.990244-2.49756-14.985366 0-4.995122-2.497561-9.990244-2.497561-12.487805 0-2.497561-2.497561-4.995122-2.497561-9.990244 0-2.497561-2.497561-7.492683-4.995122-9.990244-2.497561-2.497561-4.995122-4.995122-9.990244-7.492683-7.492683-4.995122-14.985366-7.492683-19.980488-7.492683z" fill="#F7B51B" p-id="2655"></path></svg>
